<?xml version="1.0" encoding="UTF-8"?>
<svg id="Layer_1" data-name="Layer 1" xmlns="http://www.w3.org/2000/svg" viewBox="0 0 1300 785">
  <defs>
    <style>
      .cls-1 {
        fill: none;
      }

      .cls-1, .cls-2, .cls-3 {
        stroke: #000;
        stroke-linecap: round;
        stroke-linejoin: round;
      }

      .cls-2 {
        fill: #c7824e;
      }

      .cls-3 {
        fill: #50250c;
      }
    </style>
  </defs>
  <path class="cls-2" d="M1255.541,44.458h-14.386c-1.418,227.232-2.835,454.465-4.253,681.697,6.213,4.795,12.427,9.591,18.64,14.386V44.458Z"/>
  <path class="cls-2" d="M672.229,740.542v-14.386h564.673c6.213,4.795,12.427,9.591,18.64,14.386h-583.312Z"/>
  <path class="cls-2" d="M44.459,44.458h14.386c1.418,227.232,2.835,454.465,4.253,681.697-6.213,4.795-12.427,9.591-18.64,14.386V44.458Z"/>
  <path class="cls-2" d="M627.771,740.542v-14.386c-188.224,0-376.448,0-564.673,0-6.213,4.795-12.427,9.591-18.64,14.386h583.312Z"/>
  <path class="cls-3" d="M1255.542,0H0v785h1300V0h-44.458ZM1255.542,740.542H44.458V44.458h1211.083v696.083Z"/>
  <path class="cls-3" d="M627.771,741.585V44.458s44.458,0,44.458,0v697.127c-2.321,9.761-11.604,16.76-22.229,16.76s-19.908-6.999-22.229-16.76Z"/>
  <line class="cls-1" x1="1255.542" y1="740.542" x2="1300" y2="785"/>
  <line class="cls-1" x1="44.458" y1="740.542" y2="785"/>
  <line class="cls-1" x2="44.458" y2="44.458"/>
  <line class="cls-1" x1="1255.541" y1="44.458" x2="1300"/>
</svg>